<?xml version="1.0" encoding="utf-8"?>
<!-- Generator: Adobe Illustrator 27.9.0, SVG Export Plug-In . SVG Version: 6.00 Build 0)  -->
<svg version="1.1" id="Layer_1" xmlns="http://www.w3.org/2000/svg" xmlns:xlink="http://www.w3.org/1999/xlink" x="0px" y="0px"
	 viewBox="0 0 100 83.1" style="enable-background:new 0 0 100 83.1;" xml:space="preserve">
<style type="text/css">
	.st0{fill:#F0B5FF;}
</style>
<g>
	<path class="st0" d="M82.8,19.1H42.9c-1.4,0-2.6,1.2-2.6,2.6s1.2,2.6,2.6,2.6h37.5l-2.9,9H43.8c-1.4,0-2.6,1.2-2.6,2.6
		s1.2,2.6,2.6,2.6h32l-2.9,9H38.6l-7.3-33.8c-0.4-2.1-2.3-3.6-4.4-3.6H14.3c-1.4,0-2.6,1.2-2.6,2.6s1.2,2.6,2.6,2.6h12.2l7.3,34
		c0.4,2,2.2,3.4,4.2,3.4h35.5c2,0,3.7-1.2,4.2-3.1l8.4-26.4l0,0c0.1-0.3,0.1-0.6,0.1-0.8C86.3,20.5,84.8,19.1,82.8,19.1z"/>
	<path class="st0" d="M70,58.3L70,58.3l-28.6,0c-2.2,0-4.3,0.9-5.8,2.4c-1.6,1.6-2.4,3.7-2.4,5.9c0,2.2,0.8,4.3,2.4,5.9
		c1.5,1.6,3.6,2.4,5.7,2.4c2.2,0,4.2-0.9,5.8-2.5c1.6-1.6,2.4-3.7,2.4-5.9c0-0.7-0.1-1.3-0.2-2l-0.3-1.2h12.3L61,64.6
		c-0.2,0.7-0.2,1.3-0.2,2c0,4.6,3.6,8.4,8.1,8.4c2.2,0,4.3-0.9,5.8-2.4c1.6-1.6,2.4-3.7,2.4-5.9c0-2.1-0.7-4.1-2.1-5.6
		C73.7,59.5,71.9,58.6,70,58.3z M41.3,69.8c-0.8,0-1.6-0.3-2.1-0.9c-0.6-0.6-0.9-1.4-0.9-2.2c0-1.8,1.3-3.2,3-3.2c1.7,0,3,1.4,3,3.2
		C44.3,68.4,42.9,69.8,41.3,69.8z M66.7,64.4c0.6-0.6,1.3-0.9,2.1-0.9c0.8,0,1.6,0.3,2.1,0.9c0.6,0.6,0.9,1.4,0.9,2.2
		c0,1.8-1.3,3.2-3,3.2c-1.7,0-3-1.4-3-3.2C65.8,65.8,66.2,65,66.7,64.4z"/>
</g>
</svg>
