<?xml version="1.0" encoding="utf-8"?>
<!-- Generator: Adobe Illustrator 27.9.0, SVG Export Plug-In . SVG Version: 6.00 Build 0)  -->
<svg version="1.1" id="Layer_1" xmlns="http://www.w3.org/2000/svg" xmlns:xlink="http://www.w3.org/1999/xlink" x="0px" y="0px"
	 viewBox="0 0 125.9 118.6" style="enable-background:new 0 0 125.9 118.6;" xml:space="preserve">
<style type="text/css">
	.st0{fill:#F4F2E9;}
</style>
<path class="st0" d="M14.4,73.8c-1.4,0-2.4-1-2.4-2.4V26.6c0-1.4,1-2.4,2.4-2.4h73.8c1.4,0,2.4,1,2.4,2.4v44.7c0,1.4-1,2.4-2.4,2.4
	H14.4z M16.9,69h69V29.1h-69V69z"/>
<path class="st0" d="M51.3,62.6c-3.6,0-7.1-1.4-9.6-4c-2.6-2.6-4-6-4-9.6s1.4-7.1,4-9.6c2.6-2.6,6-4,9.6-4c3.6,0,7.1,1.4,9.6,4
	c2.6,2.6,4,6,4,9.6s-1.4,7.1-4,9.6S55,62.6,51.3,62.6z M51.3,40.2c-2.4,0-4.6,0.9-6.2,2.6c-1.6,1.6-2.6,3.9-2.6,6.2s0.9,4.6,2.6,6.2
	c1.6,1.6,3.9,2.6,6.2,2.6c2.4,0,4.6-0.9,6.2-2.6c1.6-1.6,2.6-3.9,2.6-6.2s-0.9-4.6-2.6-6.2C55.9,41.1,53.7,40.2,51.3,40.2z"/>
<path class="st0" d="M26.7,83.9c-1.4,0-2.4-1-2.4-2.4c0-1.4,1-2.4,2.4-2.4h69.2V38.9c0-1.4,1-2.4,2.4-2.4c1.4,0,2.4,1,2.4,2.4v42.5
	c0,1.4-1,2.4-2.4,2.4H26.7z"/>
<path class="st0" d="M36.8,93.9c-1.4,0-2.4-1-2.4-2.4c0-1.4,1-2.4,2.4-2.4H106V49c0-1.4,1-2.4,2.4-2.4c1.4,0,2.4,1,2.4,2.4v42.5
	c0,1.4-1,2.4-2.4,2.4H36.8z"/>
<path class="st0" d="M74.8,62.6c-2.6,0-4.7-2-4.7-4.7c0-2.6,2-4.7,4.7-4.7c2.6,0,4.7,2,4.7,4.7C79.5,60.6,77.4,62.6,74.8,62.6z
	 M74.8,55.9c-1.2,0-2.1,0.9-2.1,2.1c0,1.2,0.9,2.1,2.1,2.1c1.2,0,2.1-0.9,2.1-2.1C76.9,56.8,76,55.9,74.8,55.9z"/>
<path class="st0" d="M27.9,44.7c-2.6,0-4.7-2-4.7-4.7c0-2.6,2-4.7,4.7-4.7s4.7,2,4.7,4.7C32.5,42.7,30.5,44.7,27.9,44.7z M27.9,38
	c-1.2,0-2.1,0.9-2.1,2.1s0.9,2.1,2.1,2.1c1.2,0,2.1-0.9,2.1-2.1S29,38,27.9,38z"/>
</svg>
