<?xml version="1.0" encoding="utf-8"?>
<!-- Generator: Adobe Illustrator 27.9.0, SVG Export Plug-In . SVG Version: 6.00 Build 0)  -->
<svg version="1.1"
	 id="Layer_1" xmlns:rdf="http://www.w3.org/1999/02/22-rdf-syntax-ns#" xmlns:dc="http://purl.org/dc/elements/1.1/" xmlns:sodipodi="http://sodipodi.sourceforge.net/DTD/sodipodi-0.dtd" xmlns:inkscape="http://www.inkscape.org/namespaces/inkscape" xmlns:svg="http://www.w3.org/2000/svg" xmlns:cc="http://creativecommons.org/ns#"
	 xmlns="http://www.w3.org/2000/svg" xmlns:xlink="http://www.w3.org/1999/xlink" x="0px" y="0px" viewBox="0 0 31.1 29"
	 style="enable-background:new 0 0 31.1 29;" xml:space="preserve">
<style type="text/css">
	.st0{fill:#F4F2E9;}
</style>
<path class="st0" d="M30,11.5l-1.9-2.2c-0.5-0.6-1.2-0.9-2-0.9h-3.4l0.1-0.7c0-0.3-0.1-0.6-0.3-0.9c-0.2-0.2-0.5-0.4-0.8-0.4H9.2
	C8.5,6.5,8,7,7.9,7.6L7.6,10H2.3c-0.3,0-0.5,0.2-0.5,0.5C1.8,10.8,2,11,2.3,11h5.2l-1,8.2c0,0.3,0.1,0.6,0.3,0.9
	c0.2,0.2,0.5,0.4,0.8,0.4h1.2c0,0.6,0.2,1.1,0.6,1.5c0.5,0.5,1.2,0.8,1.9,0.8c1.4,0,2.6-1,3-2.3h7.6c0,0.6,0.2,1.1,0.6,1.5
	c0.5,0.5,1.2,0.8,1.9,0.8c1.4,0,2.6-1,3-2.3H28c1,0,1.9-0.8,2-1.8l0.6-5.1C30.7,12.8,30.5,12.1,30,11.5z M7.4,19.4c0,0,0-0.1,0-0.1
	l1.1-8.8c0,0,0,0,0,0l0.4-2.8c0-0.2,0.2-0.3,0.3-0.3h12.5c0,0,0.1,0,0.1,0c0,0,0,0.1,0,0.1l-1.5,11.6c0,0.2-0.2,0.3-0.3,0.3h-5.7
	c0-0.6-0.2-1.1-0.6-1.5c-0.5-0.5-1.2-0.8-1.9-0.8c-1.4,0-2.6,1-3,2.3H7.5C7.5,19.5,7.5,19.5,7.4,19.4z M11.2,21.8
	c-0.5,0-0.9-0.2-1.2-0.5C9.7,21,9.6,20.5,9.7,20c0.1-1,1.1-1.9,2.1-1.9c0.5,0,0.9,0.2,1.2,0.5c0.3,0.3,0.4,0.8,0.4,1.3
	C13.2,20.9,12.3,21.8,11.2,21.8z M24.3,21.8c-0.5,0-0.9-0.2-1.2-0.5c-0.3-0.3-0.4-0.8-0.4-1.3c0.1-1,1.1-1.9,2.1-1.9
	c0.5,0,0.9,0.2,1.2,0.5c0.3,0.3,0.4,0.8,0.4,1.3C26.3,20.9,25.4,21.8,24.3,21.8z M29.6,13.5L29,18.6c-0.1,0.5-0.5,0.9-1,0.9h-0.5
	c0-0.6-0.2-1.1-0.6-1.5c-0.5-0.5-1.2-0.8-1.9-0.8c-1.4,0-2.6,1-3,2.3h-0.6c0-0.1,0-0.1,0-0.2l1.2-9.9h3.6c0.5,0,0.9,0.2,1.2,0.5
	l1.9,2.2C29.6,12.5,29.7,12.9,29.6,13.5z M26.3,10.9C26.3,10.9,26.3,10.9,26.3,10.9c-0.1-0.1-0.3-0.2-0.5-0.2h-1.7
	c-0.2,0-0.4,0.2-0.5,0.4l-0.4,3.2c0,0.1,0,0.3,0.1,0.4c0.1,0.1,0.2,0.2,0.4,0.2h4c0.2,0,0.4-0.2,0.5-0.4l0.1-0.9
	c0-0.2,0-0.3-0.1-0.5L26.3,10.9z M27.3,13.9h-3.1l0.3-2.3h1.1l1.7,1.9L27.3,13.9z M0,12.3c0-0.3,0.2-0.5,0.5-0.5h4.4
	c0.3,0,0.5,0.2,0.5,0.5s-0.2,0.5-0.5,0.5H0.5C0.2,12.8,0,12.6,0,12.3z M6.3,14.1c0,0.3-0.2,0.5-0.5,0.5H0.5c-0.3,0-0.5-0.2-0.5-0.5
	c0-0.3,0.2-0.5,0.5-0.5h5.4C6.1,13.6,6.3,13.8,6.3,14.1z"/>
</svg>
