<?xml version="1.0" encoding="utf-8"?>
<!-- Generator: Adobe Illustrator 27.9.0, SVG Export Plug-In . SVG Version: 6.00 Build 0)  -->
<svg version="1.1" id="Layer_1" xmlns="http://www.w3.org/2000/svg" xmlns:xlink="http://www.w3.org/1999/xlink" x="0px" y="0px"
	 viewBox="0 0 69.2 72.1" style="enable-background:new 0 0 69.2 72.1;" xml:space="preserve">
<style type="text/css">
	.st0{fill:#F4F2E9;}
</style>
<path class="st0" d="M21.4,61c-0.5,0-1.1-0.2-1.2-0.9l0,0l0,0c-0.4-1.2-1.4-2-2.7-2h-1.9c-2.9,0-5.2-2.2-5.2-5.2V51
	c0-1.6,0.8-3.2,2.1-4.3l4.1-2.9l-0.1-0.3c-0.8-2.2-1.2-4.4-1.2-6.6c0-2.6,0.5-5,1.5-7.4c1-2.3,2.4-4.3,4.1-6.1l0.3-0.3l-4.1-4h-0.2
	c-0.4,0.1-0.8,0.2-1.3,0.2c-1.1,0-2.2-0.4-3-1.2c-0.8-0.8-1.2-1.8-1.2-3s0.4-2.1,1.2-2.9s1.8-1.2,3-1.2s2.2,0.4,3,1.2
	c0.7,0.8,1.2,1.8,1.2,2.9c0,0.8-0.2,1.6-0.6,2.2L19,17.5l4.2,4.2l0.2-0.2c1.5-1.1,3.1-1.9,4.8-2.6c0.6-0.2,1.3-0.4,1.9-0.5h0.1l0,0
	c0.4-0.1,2.2-0.2,4.5-0.2c1.8,0,4.4,0.1,6.1,0.7c2.1,0.8,3.9,1.8,5.4,3l0.2,0.2l4.4-4.4l-0.1-0.2c-0.4-0.7-0.6-1.4-0.6-2.2
	c0-1.1,0.4-2.2,1.2-3c0.8-0.8,1.8-1.2,3-1.2c1.1,0,2.2,0.4,3,1.2c0.9,0.7,1.3,1.7,1.3,2.8s-0.4,2.2-1.2,3s-1.8,1.2-3,1.2
	c-0.5,0-0.9-0.1-1.3-0.2h-0.2l-4.7,4.6l0.3,0.3c0.4,0.4,0.8,0.8,1.2,1.3l0,0c1.3,1.6,3,6,3.2,6.5l0,0v0.1c0.5,1.5,0.7,3.2,0.7,5.2
	v0.2c0,2.1-0.4,4.3-1.1,6.3l0,0c-0.9,2.7-2.5,5.1-4.8,7.4c-1.5,1.4-3.2,2.6-5.1,3.5c-1.9,0.9-3.9,1.4-6,1.6l0,0l0,0
	c-0.5,0.1-1.1,0.1-1.8,0.1c-0.6,0-1.4,0-2-0.1L32,56h-0.1c-1.5-0.2-3-0.6-4.4-1.3l0,0l0,0c-1.5-0.5-3.1-1.5-4.9-3s-3.3-3.3-4.4-5.2
	L18,46.2l-3.7,2.6l0,0c-0.8,0.7-1.2,1.4-1.2,2.2v1.9c0,0.7,0.3,1.4,0.8,1.9s1.2,0.8,2,0.8h1.7c1.1,0,2.2,0.4,3.2,1.1
	c0.9,0.7,1.6,1.7,1.8,2.8l0,0l0,0c0.1,0.2,0.1,0.5-0.2,0.9l0,0l0,0C22.1,60.8,21.7,61,21.4,61z M34.6,47.4c-0.5,1.7-0.8,3.4-0.8,5.4
	v0.9h0.7c3,0,6-0.8,8.6-2.4l0.8-0.5L43,50.6c-3-0.7-5.5-1.7-7.9-3.4l-0.4-0.3L34.6,47.4z M29.7,38.7c-1.2,2.5-1.9,5.3-1.9,8.3
	c0,2,0.3,3.9,0.8,5.5v0.2l0.2,0.1c0.9,0.4,1.5,0.6,2.3,0.7l0.4,0.1V53c0-2.9,0.5-5.6,1.6-8.3c1.2-2.9,2.7-5.2,4.6-7l0,0
	c3.2-3.4,7.4-5.6,12-6.4l0.4-0.1L50,30.8c-0.4-1.2-1.1-2.2-1.8-3.2l-0.1-0.2h-0.2h-0.4c-5,0-9.9,2-13.7,5.5l0,0
	C32,34.8,30.6,36.7,29.7,38.7z M22,40.9c0,3.1,0.7,6.2,2.1,8.8l0,0l0,0c0.3,0.3,0.7,0.7,1.2,0.9l0.6,0.3l-0.1-0.7
	c-0.2-1.2-0.3-2.3-0.3-3.5c0-3.2,0.7-6.5,2.1-9.4c1.3-2.6,2.8-4.7,4.6-6.4l0,0c1.5-1.5,3.2-2.7,5-3.7c1.9-1,3.9-1.7,5.9-2h0.1
	l1.5-1.5l-0.3-0.2c-1.3-1-2.7-1.7-4-2.2h-0.1h-0.1c-3.1,0.2-6.3,1.2-9,2.9c-1.1,0.6-2.2,1.5-3.6,2.9l0,0l0,0
	c-1.8,1.8-3.2,3.9-4.2,6.3C22.4,35.8,22,38.3,22,40.9z M38.5,40.3c-0.9,1.2-1.8,2.6-2.6,4.2l-0.1,0.3L36,45c1.5,1.1,3.1,2,4.9,2.6
	s3.6,1,5.5,1.1h0.2l0.1-0.1c1.2-1.4,2.2-2.7,2.9-4.1l0.2-0.5h-0.5c-3.6-0.3-7.1-1.6-10.2-3.7l-0.3-0.2L38.5,40.3z M22.9,25.1
	c-1.6,1.6-2.8,3.4-3.6,5.4C18.4,32.6,18,34.7,18,37c0,2,0.3,3.9,1,5.6l0.6-0.2c-0.1-0.5-0.1-1-0.1-1.6c0-5.1,1.8-10.1,5.1-14.1
	l0.2-0.2l-1.7-1.7L22.9,25.1z M50.6,33.5c-3.7,0.6-7.1,2.1-9.8,4.5l-0.3,0.3l0.4,0.3c2.9,1.9,6.2,3,9.6,3.2h0.3l0.1-0.3
	c0.4-1.6,0.6-3,0.6-4.5c0-1.2-0.1-2.2-0.3-3.2l-0.1-0.3H50.6z M29.1,21.3c-1.3,0.5-2.5,1.1-3.7,2l-0.3,0.2l1.5,1.5l0.3-0.3
	c0.8-0.8,1.9-1.7,3.3-2.5c0.2-0.1,0.3-0.2,0.4-0.3c0.4-0.2,0.7-0.4,1-0.6l-0.1-0.7h-0.1l0,0c-0.7,0.1-1.3,0.3-1.9,0.5L29.1,21.3
	L29.1,21.3z M54.4,13.5c-1,0-1.8,0.8-1.8,1.8c0,0.9,0.9,1.7,1.9,1.7s1.8-0.8,1.8-1.8C56.3,14.4,55.6,13.5,54.4,13.5z M15.8,13.5
	c-0.9,0-1.7,0.8-1.7,1.8s0.8,1.8,1.8,1.8s1.8-0.8,1.8-1.8s-0.7-1.8-1.6-1.8C15.9,13.5,15.8,13.5,15.8,13.5z"/>
</svg>
