<?xml version="1.0" encoding="UTF-8"?>
<svg id="Layer_1" data-name="Layer 1" xmlns="http://www.w3.org/2000/svg" viewBox="0 0 300 300">
  <defs>
    <style>
      .cls-1 {
        fill: #f4f2e9;
        stroke-width: 0px;
      }
    </style>
  </defs>
  <path class="cls-1" d="m150,12.89c37.25,0,41.9.14,56.52.82,14.6.69,24.54,2.98,33.29,6.38,9.05,3.48,16.67,8.2,24.3,15.81,6.97,6.85,12.37,15.15,15.81,24.3,3.39,8.73,5.69,18.69,6.38,33.29.64,14.62.82,19.26.82,56.52s-.14,41.9-.82,56.52c-.68,14.6-2.99,24.54-6.38,33.29-3.43,9.16-8.83,17.45-15.81,24.3-6.86,6.97-15.15,12.37-24.3,15.81-8.73,3.39-18.69,5.69-33.29,6.38-14.62.64-19.26.82-56.52.82s-41.9-.14-56.52-.82c-14.6-.69-24.54-2.99-33.29-6.38-9.15-3.43-17.45-8.83-24.3-15.81-6.97-6.85-12.37-15.14-15.81-24.3-3.4-8.73-5.69-18.69-6.38-33.29-.64-14.62-.82-19.26-.82-56.52s.14-41.9.82-56.52c.69-14.62,2.98-24.54,6.38-33.29,3.43-9.16,8.83-17.45,15.81-24.3,6.85-6.98,15.14-12.37,24.3-15.81,8.75-3.4,18.67-5.69,33.29-6.38,14.62-.64,19.26-.82,56.52-.82Zm0,68.56c-18.18,0-35.62,7.22-48.48,20.08s-20.08,30.29-20.08,48.48,7.22,35.62,20.08,48.48c12.86,12.86,30.29,20.08,48.48,20.08s35.62-7.22,48.48-20.08c12.86-12.86,20.08-30.29,20.08-48.48s-7.22-35.62-20.08-48.48c-12.86-12.86-30.29-20.08-48.48-20.08Zm89.12-3.43c0-4.55-1.8-8.9-5.02-12.12-3.21-3.21-7.57-5.02-12.12-5.02s-8.91,1.81-12.12,5.02c-3.21,3.21-5.02,7.57-5.02,12.12s1.81,8.9,5.02,12.12c3.21,3.21,7.57,5.02,12.12,5.02s8.91-1.81,12.12-5.02c3.22-3.21,5.02-7.57,5.02-12.12Zm-89.12,30.85c10.91,0,21.37,4.33,29.09,12.05,7.71,7.71,12.05,18.18,12.05,29.09s-4.33,21.37-12.05,29.09c-7.71,7.71-18.18,12.05-29.09,12.05s-21.37-4.33-29.09-12.05c-7.71-7.72-12.05-18.18-12.05-29.09s4.33-21.37,12.05-29.09c7.72-7.71,18.18-12.05,29.09-12.05Z"/>
</svg>