<?xml version="1.0" encoding="UTF-8"?>
<svg id="Layer_1" data-name="Layer 1" xmlns="http://www.w3.org/2000/svg" viewBox="0 0 300 300">
  <defs>
    <style>
      .cls-1 {
        fill: #f4f2e9;
        stroke-width: 0px;
      }
    </style>
  </defs>
  <path class="cls-1" d="m258.68,77.21c-14.12-3.01-26.89-10.27-36.47-20.74-9.6-10.47-15.52-23.62-16.91-37.55v-6.03h-48.85v187.49c.02,8.32-2.69,16.43-7.69,23.18-5.01,6.75-12.09,11.81-20.24,14.45-8.14,2.64-16.94,2.73-25.15.26-8.19-2.47-15.39-7.38-20.54-14.03-4.64-5.89-7.45-12.91-8.17-20.27-.72-7.36.7-14.77,4.09-21.4,3.41-6.62,8.65-12.19,15.15-16.07,6.51-3.88,14-5.93,21.63-5.9,4.22-.02,8.43.58,12.46,1.78v-48c-4.69-.56-9.42-.79-14.16-.69-17.42.45-34.34,5.81-48.66,15.43-14.33,9.62-25.45,23.07-31.99,38.72-6.56,15.65-8.25,32.81-4.89,49.37,3.36,16.57,11.65,31.83,23.82,43.91,12.48,12.29,28.44,20.71,45.88,24.19,17.44,3.48,35.54,1.86,52.02-4.65,16.48-6.51,30.58-17.62,40.53-31.92,9.95-14.3,15.29-31.14,15.32-48.38v-96.01c19.71,13.63,43.33,20.92,67.54,20.85v-46.63c-4.75.02-9.5-.44-14.16-1.37h-.56Z"/>
</svg>