<?xml version="1.0" encoding="UTF-8"?>
<svg id="Layer_1" data-name="Layer 1" xmlns="http://www.w3.org/2000/svg" viewBox="0 0 300 300">
  <defs>
    <style>
      .cls-1 {
        fill: #f4f2e9;
        stroke-width: 0px;
      }
    </style>
  </defs>
  <path class="cls-1" d="m149.62,285.88c-25.63-.22-49.44-6.77-71.22-20.42-2.18-1.36-4.11-1.57-6.53-.87-15.56,4.55-31.14,9-46.72,13.48-1.02.3-2.27,1.16-3.12.36-1.07-1.01.06-2.26.46-3.31,5.36-14.24,10.72-28.48,16.19-42.68.75-1.96.64-3.41-.59-5.17-12.81-18.35-20.7-38.71-23.11-60.91-4.32-39.48,6.13-74.8,32.02-105.07,21.64-25.27,49.22-40.74,82.11-45.59,41.88-6.17,79.23,4.71,111.13,32.69,24.47,21.47,39.37,48.64,44.07,80.79,6.13,41.86-4.78,79.19-32.78,111.07-21.48,24.46-48.76,38.81-80.83,44.13-2.06.34-4.14.63-6.22.79-4.94.37-9.87,1.04-14.88.72l.02-.02ZM74.5,107.13c-.05,10.42,2.96,19.06,6.97,27.33,14.24,29.25,35.86,52.17,61.89,71.17,12.09,8.84,25.07,16.1,39.96,19.18,8.83,1.83,17.4,1.77,24.49-5,4.64-4.41,9.28-8.84,13.69-13.45,5.53-5.79,5.47-15.25-.13-21.01-6.91-7.12-13.92-14.15-21.05-21.05-7.55-7.31-18.65-4.87-22.73,4.83-3.7,8.76-11.04,12.31-19.87,8.74-16.56-6.7-28.7-18.37-35.9-34.74-4.35-9.9-1.28-16.72,8.54-21.16,9.42-4.25,11.92-14.84,4.89-22.36-6.91-7.41-14.14-14.55-21.52-21.53-6.01-5.7-14.3-5.35-20.22.43-3.95,3.85-7.65,7.96-11.74,11.64-5.42,4.88-7.74,10.83-7.29,16.98Z"/>
</svg>